/usr/bin/ffmpeg -hide_banner -y -y -r 8 -start_number 0 -start_number_range 1 -i /home/gp/Projects/Skillet/Assets/store/steam_store_ready_to_play%04d.png -i /home/gp/Projects/Skillet/Assets/store/KritaTempPalettegen_%06d.png -lavfi [0:v][1:v]paletteuse=dither=sierra2_4a:diff_mode=none -f gif -loop 0 -gifflags +transdiff /home/gp/Projects/Skillet/Assets/store/steam_store_skillet.gif
=====================================================
Input #0, image2, from '/home/gp/Projects/Skillet/Assets/store/steam_store_ready_to_play%04d.png':
  Duration: 00:00:00.08, start: 0.000000, bitrate: N/A
  Stream #0:0: Video: png, rgba(pc), 616x125 [SAR 2834:2834 DAR 616:125], 25 fps, 25 tbr, 25 tbn
Input #1, image2, from '/home/gp/Projects/Skillet/Assets/store/KritaTempPalettegen_%06d.png':
  Duration: 00:00:00.04, start: 0.000000, bitrate: N/A
  Stream #1:0: Video: png, rgba(pc), 16x16 [SAR 1:1 DAR 1:1], 25 fps, 25 tbr, 25 tbn
Stream mapping:
  Stream #0:0 (png) -> paletteuse
  Stream #1:0 (png) -> paletteuse
  paletteuse:default -> Stream #0:0 (gif)
Press [q] to stop, [?] for help
Output #0, gif, to '/home/gp/Projects/Skillet/Assets/store/steam_store_skillet.gif':
  Metadata:
    encoder         : Lavf59.27.100
  Stream #0:0: Video: gif, pal8(pc, gbr/unknown/unknown, progressive), 616x125 [SAR 1:1 DAR 616:125], q=2-31, 200 kb/s, 8 fps, 100 tbn
    Metadata:
      encoder         : Lavc59.37.100 gif
frame=    1 fps=0.0 q=-0.0 size=       0kB time=00:00:00.01 bitrate=   0.0kbits/s speed=0.916x    frame=    2 fps=0.0 q=-0.0 Lsize=      26kB time=00:00:00.14 bitrate=1546.1kbits/s speed= 4.2x    
video:26kB audio:0kB subtitle:0kB other streams:0kB global headers:0kB muxing overhead: 0.073973%
